<svg xmlns="http://www.w3.org/2000/svg" xmlns:xlink="http://www.w3.org/1999/xlink" viewBox="0 0 63.25 75.25"><defs><linearGradient id="Degradado_sin_nombre_10" x1="11.8" y1="18.57" x2="13.57" y2="20.77" gradientTransform="rotate(17.22 24.027 45.578)" gradientUnits="userSpaceOnUse"><stop offset=".1" stop-color="#8600d4"/><stop offset="1" stop-color="#009245" stop-opacity=".4"/></linearGradient><linearGradient id="Degradado_sin_nombre_5" x1="13.14" y1="24.56" x2="11.31" y2="27.56" gradientTransform="rotate(27.9 33.588 46.515)" xlink:href="#Degradado_sin_nombre_10"/><linearGradient id="Degradado_sin_nombre_16" x1="16.97" y1="20.19" x2="20.51" y2="19.72" xlink:href="#Degradado_sin_nombre_10"/><linearGradient id="Degradado_sin_nombre_12" x1="17.61" y1="17.56" x2="20.79" y2="19.29" gradientUnits="userSpaceOnUse"><stop offset=".1" stop-color="#8300bf"/><stop offset="1" stop-color="#009245" stop-opacity=".4"/></linearGradient><linearGradient id="Degradado_sin_nombre_7" x1="23.01" y1="16.15" x2="22.28" y2="18.73" xlink:href="#Degradado_sin_nombre_10"/><radialGradient id="Degradado_sin_nombre_28" cx="-9.05" cy="39.03" r="2.56" gradientTransform="matrix(.36998 .0042 -.00318 .27998 25.28 8.67)" gradientUnits="userSpaceOnUse"><stop offset="0" stop-color="#009245" stop-opacity=".2"/><stop offset="1" stop-color="#9300bf"/></radialGradient><style>.cls-1{fill:none;stroke:#009245;stroke-miterlimit:10;stroke-width:3px}.cls-7{fill:#00221c;font-family:BritannicBold,Britannic Bold;font-size:3.07px}.cls-17{letter-spacing:-.01em}</style></defs><g id="Capa_2" data-name="Capa 2"><g id="Capa_1-2" data-name="Capa 1"><path class="cls-1" d="M3.18 65h56.46v7.18H3.18z"/><path class="cls-1" d="M5.64 65.43h51.11v6.75H5.64z"/><path d="M9.55 66.18h43a1.88 1.88 0 011.88 1.88v1a1.88 1.88 0 01-1.88 1.88h-43A1.88 1.88 0 017.68 69v-1a1.87 1.87 0 011.87-1.87z" fill="#009245" stroke-width="3" stroke="#009245" stroke-miterlimit="10"/><rect x="27.5" y="66.18" width="7.82" height="5.04" rx="2.14" fill="#fff"/><rect x="2" y="2" width="59.25" height="71.25" rx="3.32" stroke-width="4" stroke="#009245" stroke-miterlimit="10" fill="none"/><path d="M44.32 22.27a15.38 15.38 0 00-5.16-.76c-3.79.09-5.25 2.21-10.55 1.92a9.82 9.82 0 01-3.08-.59 11.83 11.83 0 01-3.45-2.31h.05a17.61 17.61 0 003.4 2.27h0a12.61 12.61 0 003.08.59c4.5.3 6.09-1.86 10.55-1.92a16.54 16.54 0 015.16.8z" stroke="#009245" stroke-miterlimit="10" fill="none"/><text transform="matrix(2.18 0 0 1 24.7 23.85)" font-family="BritannicBold,Britannic Bold" fill="#00221c" font-size="8.04">J</text><text class="cls-7" transform="matrix(1.77 0 0 1 32.07 23.26)">M</text><text transform="matrix(1.39 0 0 1 36.06 23.65)" font-size="7.8" font-family="BritannicBold,Britannic Bold" fill="#00221c">A</text><text class="cls-7" transform="matrix(1.77 0 0 1 32.07 21.07)">M</text><path d="M22.21 17.55a2 2 0 01.08 1.45 1.5 1.5 0 00-.82 0 1.06 1.06 0 00-.59.36 2.83 2.83 0 01-1.06-1.16 2.23 2.23 0 01.29-2.21 3.55 3.55 0 012.1 1.56z" fill="url(#Degradado_sin_nombre_10)"/><path d="M24.57 19.46a4.4 4.4 0 01-1.8.38.66.66 0 00-.15-.61 1.18 1.18 0 00-.61-.35 3 3 0 011.24-1 4.89 4.89 0 012.94-.27 2.76 2.76 0 01-1.62 1.85z" fill="url(#Degradado_sin_nombre_5)"/><path d="M19.15 19a4.49 4.49 0 011.87.22.66.66 0 00-.21.59.8.8 0 00.35.5 4 4 0 01-1.72.55 4.64 4.64 0 01-2.85-.66 4 4 0 012.56-1.2z" fill="url(#Degradado_sin_nombre_16)"/><path d="M20.29 17.86a3.17 3.17 0 011.31 1 1.12 1.12 0 00-.65.38.62.62 0 00-.13.56 4.57 4.57 0 01-1.82-.33 2.93 2.93 0 01-1.72-1.82 5 5 0 013.01.21z" fill="url(#Degradado_sin_nombre_12)"/><path d="M23.73 18.13a2.68 2.68 0 01-1 1.17 1.15 1.15 0 00-.65-.38 1.49 1.49 0 00-.76 0 2 2 0 010-1.4 3.34 3.34 0 012-1.66 2.27 2.27 0 01.41 2.27z" fill="url(#Degradado_sin_nombre_7)"/><ellipse cx="21.79" cy="19.65" rx=".94" ry=".74" transform="rotate(-.65 21.927 19.517)" fill="url(#Degradado_sin_nombre_28)"/><text transform="translate(25.65 33.61)" font-size="4" font-family="ArialRoundedMTBold,Arial Rounded MT Bold" fill="#00221c">INICIO<tspan x="-3.46" y="4.8">SOBRE MI</tspan><tspan x="-6.02" y="9.6">PR</tspan><tspan x="-.48" y="9.6" letter-spacing="-.04em">O</tspan><tspan x="2.54" y="9.6">YEC</tspan><tspan class="cls-17" x="10.67" y="9.6">T</tspan><tspan x="13.11" y="9.6">OS</tspan><tspan x="-6.26" y="14.4">CON</tspan><tspan x="2.91" y="14.4" letter-spacing="-.06em">T</tspan><tspan x="5.16" y="14.4" letter-spacing="-.02em">A</tspan><tspan x="7.94" y="14.4">C</tspan><tspan class="cls-17" x="10.9" y="14.4">T</tspan><tspan x="13.34" y="14.4">OS</tspan></text><path stroke-width=".5" stroke="#009245" stroke-miterlimit="10" fill="none" d="M24.61 32.21h14.78"/></g></g></svg>