<svg xmlns="http://www.w3.org/2000/svg" xmlns:xlink="http://www.w3.org/1999/xlink" viewBox="0 0 78.11 64.93"><defs><linearGradient id="a" x1="18.28" y1="7.37" x2="39.52" y2="33.82" gradientTransform="rotate(17.22 31.662 37.328)" gradientUnits="userSpaceOnUse"><stop offset=".1" stop-color="#8600d4"/><stop offset="1" stop-color="#009245" stop-opacity=".5"/></linearGradient><linearGradient id="b" x1="67.05" y1="10.76" x2="50.21" y2="38.19" gradientTransform="rotate(27.9 41.236 38.247)" xlink:href="#a"/><linearGradient id="c" x1="2.93" y1="54.94" x2="32.23" y2="51.06" gradientUnits="userSpaceOnUse"><stop offset=".1" stop-color="#8600d4"/><stop offset=".99" stop-color="#009245" stop-opacity=".5"/></linearGradient><linearGradient id="d" x1="6.29" y1="26.35" x2="34.54" y2="41.7" gradientUnits="userSpaceOnUse"><stop offset=".1" stop-color="#8300bf"/><stop offset="1" stop-color="#009245" stop-opacity=".5"/></linearGradient><linearGradient id="e" x1="54.36" y1="4.24" x2="45.06" y2="37.14" xlink:href="#a"/><radialGradient id="f" cx="-2.11" cy="54.54" r="2.56" gradientTransform="matrix(.03 3.03 -3.71 .04 244.67 53.52)" gradientUnits="userSpaceOnUse"><stop offset="0" stop-color="#009245" stop-opacity=".4"/><stop offset="1" stop-color="#9300bf"/></radialGradient></defs><g data-name="Capa 2"><g data-name="Capa 1"><path d="M45.68 21.86a41.48 41.48 0 01.71 18.47 7.66 7.66 0 00-6.68-.55 9.54 9.54 0 00-4.79 4.71 35.79 35.79 0 01-8.7-15.25c-4-14.16 1.31-26.52 2.42-29a35 35 0 0117.04 21.62z" fill="url(#a)"/><path d="M64.93 46.91a24.51 24.51 0 01-14.67 4.93 13 13 0 00-1.2-8 9.4 9.4 0 00-5-4.59 32.91 32.91 0 0110.15-13.59c10.39-7.87 21.64-4.35 23.9-3.59-.37 2.67-2.52 16.93-13.18 24.84z" fill="url(#b)"/><path d="M20.83 40.18A24.63 24.63 0 0136 43a12.36 12.36 0 00-1.72 7.8 11.38 11.38 0 002.92 6.6 26.85 26.85 0 01-14.07 7.22C10.84 66.56 1.79 57.79 0 56c1.28-2.25 8.27-14 20.83-15.82z" fill="url(#c)"/><path d="M30.11 25.9a33.18 33.18 0 0110.6 13.4 9.25 9.25 0 00-5.3 4.91 12.79 12.79 0 00-1 7.38A25.06 25.06 0 0119.58 47c-10.73-7.51-13.5-21.1-14-23.85 2.13-.84 13.61-5 24.53 2.75z" fill="url(#d)"/><path d="M58.09 29.41a35 35 0 01-8.26 15.44 9.89 9.89 0 00-5.23-5.11 7.54 7.54 0 00-6.19.46 41.66 41.66 0 01.16-18.42A34.66 34.66 0 0154.44 0c1.18 2.32 7.28 14.86 3.65 29.41z" fill="url(#e)"/><ellipse cx="42.29" cy="49.42" rx="9.68" ry="7.62" transform="rotate(-89.35 42.29 49.423)" fill="url(#f)"/></g></g></svg>