<svg xmlns="http://www.w3.org/2000/svg" xmlns:xlink="http://www.w3.org/1999/xlink" viewBox="0 0 66.62 28.26"><defs><linearGradient id="Degradado_sin_nombre_10" x1="-.16" y1="-21.96" x2="4.67" y2="-15.95" gradientTransform="rotate(17.22 -71.143 18.71)" gradientUnits="userSpaceOnUse"><stop offset=".1" stop-color="#8600d4"/><stop offset="1" stop-color="#009245" stop-opacity=".4"/></linearGradient><linearGradient id="Degradado_sin_nombre_5" x1="5.59" y1="-32.38" x2="1.08" y2="-25.04" gradientTransform="rotate(27.9 -61.54 19.646)" xlink:href="#Degradado_sin_nombre_10"/><linearGradient id="Degradado_sin_nombre_16" x1=".88" y1="12.05" x2="9.37" y2="10.93" xlink:href="#Degradado_sin_nombre_10"/><linearGradient id="Degradado_sin_nombre_12" x1="2.24" y1="5.13" x2="10.01" y2="9.35" gradientUnits="userSpaceOnUse"><stop offset=".1" stop-color="#8300bf"/><stop offset="1" stop-color="#009245" stop-opacity=".4"/></linearGradient><linearGradient id="Degradado_sin_nombre_7" x1="15.5" y1=".8" x2="13.47" y2="7.97" xlink:href="#Degradado_sin_nombre_10"/><radialGradient id="Degradado_sin_nombre_28" cx="-27.93" cy="22.44" r="2.56" gradientTransform="rotate(2.34 172.452 924.732) scale(.89 .8)" gradientUnits="userSpaceOnUse"><stop offset="0" stop-color="#009245" stop-opacity=".2"/><stop offset="1" stop-color="#9300bf"/></radialGradient><style>.cls-3{fill:#fff;font-family:BritannicBold,Britannic Bold;font-size:8.7px}</style></defs><g id="Capa_2" data-name="Capa 2"><g id="Capa_1-2" data-name="Capa 1"><path d="M66.12 18.1a31.23 31.23 0 00-12.31-2.16c-9.05.26-12.52 6.27-25.15 5.44a20.15 20.15 0 01-7.35-1.68 28.6 28.6 0 01-8.22-6.55l.11.12c5.24 4.95 8.1 6.42 8.11 6.43h0a26 26 0 007.35 1.68c10.72.83 14.51-5.28 25.15-5.44a33.22 33.22 0 0112.31 2.16z" fill="none" stroke="#009245" stroke-miterlimit="10"/><text transform="matrix(1.83 0 0 1 19.33 22.56)" fill="#fff" font-family="BritannicBold,Britannic Bold" font-size="22.78">J</text><text class="cls-3" transform="matrix(1.49 0 0 1 36.9 20.91)">M</text><text transform="matrix(1.17 0 0 1 46.42 22.01)" font-size="22.12" fill="#fff" font-family="BritannicBold,Britannic Bold">A</text><text class="cls-3" transform="matrix(1.49 0 0 1 36.9 14.69)">M</text><path d="M13.38 4.72a6.59 6.59 0 01.21 4 2.92 2.92 0 00-2-.12 2.55 2.55 0 00-1.4 1 7.68 7.68 0 01-2.51-3.29A7.31 7.31 0 018.39.05a8.79 8.79 0 014.99 4.67z" fill="url(#Degradado_sin_nombre_10)"/><path d="M19 10.12a9 9 0 01-4.29 1.07 2.18 2.18 0 00-.36-1.72 2.63 2.63 0 00-1.45-1 7.64 7.64 0 013-2.94 10 10 0 017-.78 7.8 7.8 0 01-3.9 5.37z" fill="url(#Degradado_sin_nombre_5)"/><path d="M6.1 8.67a9.42 9.42 0 014.45.62A2.19 2.19 0 0010 11a2.34 2.34 0 00.86 1.43A9 9 0 016.78 14 9.83 9.83 0 010 12.08a9.14 9.14 0 016.1-3.41z" fill="url(#Degradado_sin_nombre_16)"/><path d="M8.82 5.59a8.05 8.05 0 013.11 2.89 2.63 2.63 0 00-1.55 1.06 2.09 2.09 0 00-.3 1.59 9.31 9.31 0 01-4.34-1A8.07 8.07 0 011.63 5a10.16 10.16 0 017.19.59z" fill="url(#Degradado_sin_nombre_12)"/><path d="M17 6.35a7.34 7.34 0 01-2.4 3.33 2.59 2.59 0 00-1.53-1.1 2.9 2.9 0 00-1.82.1 6.72 6.72 0 01.05-4A8.39 8.39 0 0116 0a7.34 7.34 0 011 6.35z" fill="url(#Degradado_sin_nombre_7)"/><ellipse cx="12.39" cy="10.67" rx="2.23" ry="2.09" transform="rotate(-2.34 12.276 10.537)" fill="url(#Degradado_sin_nombre_28)"/></g></g></svg>