<svg xmlns="http://www.w3.org/2000/svg" viewBox="0 0 66.78 67.37"><defs><style>.cls-1,.cls-10,.cls-11,.cls-12,.cls-13,.cls-3,.cls-4,.cls-5,.cls-6,.cls-7,.cls-8,.cls-9{fill:#009245;}.cls-1{opacity:0.1;}.cls-2{fill:#fff;}.cls-3{opacity:0.15;}.cls-4{opacity:0.2;}.cls-5{opacity:0.3;}.cls-6{opacity:0.4;}.cls-7{opacity:0.5;}.cls-8{opacity:0.6;}.cls-9{opacity:0.7;}.cls-10{opacity:0.8;}.cls-11{opacity:0.9;}.cls-13{opacity:0.95;}.cls-14{font-size:13.97px;fill:#00221c;font-family:Elephant-Regular, Elephant;}</style></defs><g id="Capa_2" data-name="Capa 2"><g id="Capa_1-2" data-name="Capa 1"><ellipse class="cls-1" cx="5.5" cy="5.97" rx="5.5" ry="5.97"/><ellipse class="cls-2" cx="10.34" cy="12.22" rx="5.5" ry="5.97"/><ellipse class="cls-3" cx="10.21" cy="12.22" rx="5.5" ry="5.97"/><ellipse class="cls-2" cx="14.14" cy="17.46" rx="5.5" ry="5.97"/><ellipse class="cls-4" cx="14.01" cy="17.32" rx="5.5" ry="5.97"/><ellipse class="cls-2" cx="17.67" cy="22.55" rx="5.5" ry="5.97"/><ellipse class="cls-5" cx="17.54" cy="22.41" rx="5.5" ry="5.97"/><ellipse class="cls-2" cx="20.55" cy="27.5" rx="5.5" ry="5.97"/><ellipse class="cls-6" cx="20.42" cy="27.36" rx="5.5" ry="5.97"/><ellipse class="cls-2" cx="23.04" cy="33.32" rx="5.5" ry="5.97"/><ellipse class="cls-7" cx="22.91" cy="33.18" rx="5.5" ry="5.97"/><ellipse class="cls-2" cx="25.53" cy="39.29" rx="5.5" ry="5.97"/><ellipse class="cls-8" cx="25.4" cy="39.14" rx="5.5" ry="5.97"/><ellipse class="cls-2" cx="28.02" cy="45.54" rx="5.5" ry="5.97"/><ellipse class="cls-9" cx="27.88" cy="45.4" rx="5.5" ry="5.97"/><ellipse class="cls-2" cx="30.37" cy="50.78" rx="5.5" ry="5.97"/><ellipse class="cls-10" cx="30.24" cy="50.64" rx="5.5" ry="5.97"/><ellipse class="cls-2" cx="32.6" cy="56.17" rx="5.5" ry="5.97"/><ellipse class="cls-11" cx="32.47" cy="56.02" rx="5.5" ry="5.97"/><ellipse class="cls-2" cx="34.3" cy="61.41" rx="5.5" ry="5.97"/><ellipse class="cls-12" cx="34.17" cy="61.26" rx="5.5" ry="5.97"/><ellipse class="cls-2" cx="40.06" cy="56.02" rx="5.5" ry="5.97"/><ellipse class="cls-13" cx="39.8" cy="56.02" rx="5.5" ry="5.97"/><ellipse class="cls-2" cx="44.25" cy="50.93" rx="5.5" ry="5.97"/><ellipse class="cls-10" cx="43.99" cy="50.93" rx="5.5" ry="5.97"/><ellipse class="cls-2" cx="48.05" cy="47.29" rx="5.5" ry="5.97"/><ellipse class="cls-9" cx="47.78" cy="47.29" rx="5.5" ry="5.97"/><ellipse class="cls-2" cx="51.97" cy="43.87" rx="5.5" ry="5.97"/><ellipse class="cls-7" cx="51.71" cy="43.87" rx="5.5" ry="5.97"/><text class="cls-14" transform="translate(40.37 30.32) scale(1.26 1)">css</text></g></g></svg>