<svg xmlns="http://www.w3.org/2000/svg" xmlns:xlink="http://www.w3.org/1999/xlink" viewBox="0 0 63.25 75.25"><defs><style>.cls-1,.cls-20,.cls-4,.cls-5{fill:none;}.cls-1,.cls-2,.cls-20,.cls-4,.cls-5{stroke:#009245;stroke-miterlimit:10;}.cls-1,.cls-2{stroke-width:3px;}.cls-2{fill:#009245;}.cls-3{fill:#fff;}.cls-4{stroke-width:4px;}.cls-6{font-size:8.04px;}.cls-15,.cls-6,.cls-7,.cls-8{fill:#00221c;}.cls-6,.cls-7,.cls-8{font-family:BritannicBold, Britannic Bold;}.cls-7{font-size:3.07px;}.cls-8{font-size:7.8px;}.cls-9{fill:url(#Degradado_sin_nombre_10);}.cls-10{fill:url(#Degradado_sin_nombre_5);}.cls-11{fill:url(#Degradado_sin_nombre_16);}.cls-12{fill:url(#Degradado_sin_nombre_12);}.cls-13{fill:url(#Degradado_sin_nombre_7);}.cls-14{fill:url(#Degradado_sin_nombre_28);}.cls-15{font-size:4px;font-family:ArialRoundedMTBold, Arial Rounded MT Bold;}.cls-16{letter-spacing:-0.04em;}.cls-17{letter-spacing:-0.01em;}.cls-18{letter-spacing:-0.06em;}.cls-19{letter-spacing:-0.02em;}.cls-20{stroke-width:0.5px;}</style><linearGradient id="Degradado_sin_nombre_10" x1="11.8" y1="18.57" x2="13.57" y2="20.77" gradientTransform="translate(14.57 -5.07) rotate(17.22)" gradientUnits="userSpaceOnUse"><stop offset="0.1" stop-color="#8600d4"/><stop offset="1" stop-color="#009245" stop-opacity="0.4"/></linearGradient><linearGradient id="Degradado_sin_nombre_5" x1="13.14" y1="24.56" x2="11.31" y2="27.56" gradientTransform="translate(25.67 -10.31) rotate(27.9)" xlink:href="#Degradado_sin_nombre_10"/><linearGradient id="Degradado_sin_nombre_16" x1="16.97" y1="20.19" x2="20.51" y2="19.72" gradientTransform="matrix(1, 0, 0, 1, 0, 0)" xlink:href="#Degradado_sin_nombre_10"/><linearGradient id="Degradado_sin_nombre_12" x1="17.61" y1="17.56" x2="20.79" y2="19.29" gradientUnits="userSpaceOnUse"><stop offset="0.1" stop-color="#8300bf"/><stop offset="1" stop-color="#009245" stop-opacity="0.4"/></linearGradient><linearGradient id="Degradado_sin_nombre_7" x1="23.01" y1="16.15" x2="22.28" y2="18.73" gradientTransform="matrix(1, 0, 0, 1, 0, 0)" xlink:href="#Degradado_sin_nombre_10"/><radialGradient id="Degradado_sin_nombre_28" cx="-9.05" cy="39.03" r="2.56" gradientTransform="translate(25.28 8.67) rotate(0.65) scale(0.37 0.28)" gradientUnits="userSpaceOnUse"><stop offset="0" stop-color="#009245" stop-opacity="0.2"/><stop offset="1" stop-color="#9300bf"/></radialGradient></defs><g id="Capa_2" data-name="Capa 2"><g id="Capa_1-2" data-name="Capa 1"><rect class="cls-1" x="3.18" y="65" width="56.46" height="7.18"/><rect class="cls-1" x="5.64" y="65.43" width="51.11" height="6.75"/><path class="cls-2" d="M9.55,66.18h43a1.88,1.88,0,0,1,1.88,1.88v1a1.88,1.88,0,0,1-1.88,1.88h-43A1.88,1.88,0,0,1,7.68,69v-1a1.87,1.87,0,0,1,1.87-1.87Z"/><rect class="cls-3" x="27.5" y="66.18" width="7.82" height="5.04" rx="2.14"/><rect class="cls-4" x="2" y="2" width="59.25" height="71.25" rx="3.32"/><path class="cls-5" d="M44.32,22.27a15.38,15.38,0,0,0-5.16-.76c-3.79.09-5.25,2.21-10.55,1.92a9.82,9.82,0,0,1-3.08-.59,11.83,11.83,0,0,1-3.45-2.31l.05,0a17.61,17.61,0,0,0,3.4,2.27h0a12.61,12.61,0,0,0,3.08.59c4.5.3,6.09-1.86,10.55-1.92A16.54,16.54,0,0,1,44.32,22.27Z"/><text class="cls-6" transform="translate(24.7 23.85) scale(2.18 1)">J</text><text class="cls-7" transform="translate(32.07 23.26) scale(1.77 1)">M</text><text class="cls-8" transform="translate(36.06 23.65) scale(1.39 1)">A</text><text class="cls-7" transform="translate(32.07 21.07) scale(1.77 1)">M</text><path class="cls-9" d="M22.21,17.55A2,2,0,0,1,22.29,19a1.5,1.5,0,0,0-.82,0,1.06,1.06,0,0,0-.59.36,2.83,2.83,0,0,1-1.06-1.16,2.23,2.23,0,0,1,.29-2.21A3.55,3.55,0,0,1,22.21,17.55Z"/><path class="cls-10" d="M24.57,19.46a4.4,4.4,0,0,1-1.8.38.66.66,0,0,0-.15-.61,1.18,1.18,0,0,0-.61-.35,3,3,0,0,1,1.24-1,4.89,4.89,0,0,1,2.94-.27A2.76,2.76,0,0,1,24.57,19.46Z"/><path class="cls-11" d="M19.15,19a4.49,4.49,0,0,1,1.87.22.66.66,0,0,0-.21.59.8.8,0,0,0,.35.5,4,4,0,0,1-1.72.55,4.64,4.64,0,0,1-2.85-.66A4,4,0,0,1,19.15,19Z"/><path class="cls-12" d="M20.29,17.86a3.17,3.17,0,0,1,1.31,1,1.12,1.12,0,0,0-.65.38.62.62,0,0,0-.13.56A4.57,4.57,0,0,1,19,19.47a2.93,2.93,0,0,1-1.72-1.82A5,5,0,0,1,20.29,17.86Z"/><path class="cls-13" d="M23.73,18.13a2.68,2.68,0,0,1-1,1.17,1.15,1.15,0,0,0-.65-.38,1.49,1.49,0,0,0-.76,0,2,2,0,0,1,0-1.4,3.34,3.34,0,0,1,2-1.66A2.27,2.27,0,0,1,23.73,18.13Z"/><ellipse class="cls-14" cx="21.79" cy="19.65" rx="0.94" ry="0.74" transform="translate(-0.22 0.25) rotate(-0.65)"/><text class="cls-15" transform="translate(25.65 33.61)">INICIO<tspan x="-3.46" y="4.8">SOBRE MI</tspan><tspan x="-6.02" y="9.6">PR</tspan><tspan class="cls-16" x="-0.48" y="9.6">O</tspan><tspan x="2.54" y="9.6">YEC</tspan><tspan class="cls-17" x="10.67" y="9.6">T</tspan><tspan x="13.11" y="9.6">OS</tspan><tspan x="-6.26" y="14.4">CON</tspan><tspan class="cls-18" x="2.91" y="14.4">T</tspan><tspan class="cls-19" x="5.16" y="14.4">A</tspan><tspan x="7.94" y="14.4">C</tspan><tspan class="cls-17" x="10.9" y="14.4">T</tspan><tspan x="13.34" y="14.4">OS</tspan></text><line class="cls-20" x1="24.61" y1="32.21" x2="39.39" y2="32.21"/></g></g></svg>