<svg xmlns="http://www.w3.org/2000/svg" xmlns:xlink="http://www.w3.org/1999/xlink" viewBox="0 0 78.11 64.93"><defs><style>.cls-1{fill:url(#Degradado_sin_nombre_25);}.cls-2{fill:url(#Degradado_sin_nombre_27);}.cls-3{fill:url(#Degradado_sin_nombre_23);}.cls-4{fill:url(#Degradado_sin_nombre_24);}.cls-5{fill:url(#Degradado_sin_nombre_26);}.cls-6{fill:url(#Degradado_sin_nombre_32);}</style><linearGradient id="Degradado_sin_nombre_25" x1="18.28" y1="7.37" x2="39.52" y2="33.82" gradientTransform="translate(12.47 -7.7) rotate(17.22)" gradientUnits="userSpaceOnUse"><stop offset="0.1" stop-color="#8600d4"/><stop offset="1" stop-color="#009245" stop-opacity="0.5"/></linearGradient><linearGradient id="Degradado_sin_nombre_27" x1="67.05" y1="10.76" x2="50.21" y2="38.19" gradientTransform="translate(22.69 -14.85) rotate(27.9)" xlink:href="#Degradado_sin_nombre_25"/><linearGradient id="Degradado_sin_nombre_23" x1="2.93" y1="54.94" x2="32.23" y2="51.06" gradientUnits="userSpaceOnUse"><stop offset="0.1" stop-color="#8600d4"/><stop offset="0.99" stop-color="#009245" stop-opacity="0.5"/></linearGradient><linearGradient id="Degradado_sin_nombre_24" x1="6.29" y1="26.35" x2="34.54" y2="41.7" gradientUnits="userSpaceOnUse"><stop offset="0.1" stop-color="#8300bf"/><stop offset="1" stop-color="#009245" stop-opacity="0.5"/></linearGradient><linearGradient id="Degradado_sin_nombre_26" x1="54.36" y1="4.24" x2="45.06" y2="37.14" gradientTransform="matrix(1, 0, 0, 1, 0, 0)" xlink:href="#Degradado_sin_nombre_25"/><radialGradient id="Degradado_sin_nombre_32" cx="-2.11" cy="54.54" r="2.56" gradientTransform="matrix(0.03, 3.03, -3.71, 0.04, 244.67, 53.52)" gradientUnits="userSpaceOnUse"><stop offset="0" stop-color="#009245" stop-opacity="0.4"/><stop offset="1" stop-color="#9300bf"/></radialGradient></defs><g id="Capa_2" data-name="Capa 2"><g id="Capa_1-2" data-name="Capa 1"><path class="cls-1" d="M45.68,21.86a41.48,41.48,0,0,1,.71,18.47,7.66,7.66,0,0,0-6.68-.55,9.54,9.54,0,0,0-4.79,4.71,35.79,35.79,0,0,1-8.7-15.25c-4-14.16,1.31-26.52,2.42-29A35,35,0,0,1,45.68,21.86Z"/><path class="cls-2" d="M64.93,46.91a24.51,24.51,0,0,1-14.67,4.93,13,13,0,0,0-1.2-8,9.4,9.4,0,0,0-5-4.59A32.91,32.91,0,0,1,54.21,25.66c10.39-7.87,21.64-4.35,23.9-3.59C77.74,24.74,75.59,39,64.93,46.91Z"/><path class="cls-3" d="M20.83,40.18A24.63,24.63,0,0,1,36,43a12.36,12.36,0,0,0-1.72,7.8,11.38,11.38,0,0,0,2.92,6.6,26.85,26.85,0,0,1-14.07,7.22C10.84,66.56,1.79,57.79,0,56,1.28,53.75,8.27,42,20.83,40.18Z"/><path class="cls-4" d="M30.11,25.9a33.18,33.18,0,0,1,10.6,13.4,9.25,9.25,0,0,0-5.3,4.91,12.79,12.79,0,0,0-1,7.38A25.06,25.06,0,0,1,19.58,47c-10.73-7.51-13.5-21.1-14-23.85C7.71,22.31,19.19,18.15,30.11,25.9Z"/><path class="cls-5" d="M58.09,29.41a35,35,0,0,1-8.26,15.44,9.89,9.89,0,0,0-5.23-5.11,7.54,7.54,0,0,0-6.19.46,41.66,41.66,0,0,1,.16-18.42A34.66,34.66,0,0,1,54.44,0C55.62,2.32,61.72,14.86,58.09,29.41Z"/><ellipse class="cls-6" cx="42.29" cy="49.42" rx="9.68" ry="7.62" transform="translate(-7.61 91.15) rotate(-89.35)"/></g></g></svg>