<svg xmlns="http://www.w3.org/2000/svg" xmlns:xlink="http://www.w3.org/1999/xlink" viewBox="0 0 66.62 28.26"><defs><style>.cls-1{fill:none;stroke:#009245;stroke-miterlimit:10;}.cls-2{font-size:22.78px;}.cls-2,.cls-3,.cls-4{fill:#fff;font-family:BritannicBold, Britannic Bold;}.cls-3{font-size:8.7px;}.cls-4{font-size:22.12px;}.cls-5{fill:url(#Degradado_sin_nombre_10);}.cls-6{fill:url(#Degradado_sin_nombre_5);}.cls-7{fill:url(#Degradado_sin_nombre_16);}.cls-8{fill:url(#Degradado_sin_nombre_12);}.cls-9{fill:url(#Degradado_sin_nombre_7);}.cls-10{fill:url(#Degradado_sin_nombre_28);}</style><linearGradient id="Degradado_sin_nombre_10" x1="-0.16" y1="-21.96" x2="4.67" y2="-15.95" gradientTransform="translate(2.35 21.9) rotate(17.22)" gradientUnits="userSpaceOnUse"><stop offset="0.1" stop-color="#8600d4"/><stop offset="1" stop-color="#009245" stop-opacity="0.4"/></linearGradient><linearGradient id="Degradado_sin_nombre_5" x1="5.59" y1="-32.38" x2="1.08" y2="-25.04" gradientTransform="translate(2.04 31.08) rotate(27.9)" xlink:href="#Degradado_sin_nombre_10"/><linearGradient id="Degradado_sin_nombre_16" x1="0.88" y1="12.05" x2="9.37" y2="10.93" gradientTransform="matrix(1, 0, 0, 1, 0, 0)" xlink:href="#Degradado_sin_nombre_10"/><linearGradient id="Degradado_sin_nombre_12" x1="2.24" y1="5.13" x2="10.01" y2="9.35" gradientUnits="userSpaceOnUse"><stop offset="0.1" stop-color="#8300bf"/><stop offset="1" stop-color="#009245" stop-opacity="0.4"/></linearGradient><linearGradient id="Degradado_sin_nombre_7" x1="15.5" y1="0.8" x2="13.47" y2="7.97" gradientTransform="matrix(1, 0, 0, 1, 0, 0)" xlink:href="#Degradado_sin_nombre_10"/><radialGradient id="Degradado_sin_nombre_28" cx="-27.93" cy="22.44" r="2.56" gradientTransform="translate(37.9 -6.27) rotate(2.34) scale(0.89 0.8)" gradientUnits="userSpaceOnUse"><stop offset="0" stop-color="#009245" stop-opacity="0.2"/><stop offset="1" stop-color="#9300bf"/></radialGradient></defs><g id="Capa_2" data-name="Capa 2"><g id="Capa_1-2" data-name="Capa 1"><path class="cls-1" d="M66.12,18.1a31.23,31.23,0,0,0-12.31-2.16c-9.05.26-12.52,6.27-25.15,5.44a20.15,20.15,0,0,1-7.35-1.68,28.6,28.6,0,0,1-8.22-6.55s.11.12.11.12c5.24,4.95,8.1,6.42,8.11,6.43h0a26,26,0,0,0,7.35,1.68c10.72.83,14.51-5.28,25.15-5.44A33.22,33.22,0,0,1,66.12,18.1Z"/><text class="cls-2" transform="translate(19.33 22.56) scale(1.83 1)">J</text><text class="cls-3" transform="translate(36.9 20.91) scale(1.49 1)">M</text><text class="cls-4" transform="translate(46.42 22.01) scale(1.17 1)">A</text><text class="cls-3" transform="translate(36.9 14.69) scale(1.49 1)">M</text><path class="cls-5" d="M13.38,4.72a6.59,6.59,0,0,1,.21,4,2.92,2.92,0,0,0-2-.12,2.55,2.55,0,0,0-1.4,1A7.68,7.68,0,0,1,7.68,6.31,7.31,7.31,0,0,1,8.39.05,8.79,8.79,0,0,1,13.38,4.72Z"/><path class="cls-6" d="M19,10.12a9,9,0,0,1-4.29,1.07,2.18,2.18,0,0,0-.36-1.72,2.63,2.63,0,0,0-1.45-1,7.64,7.64,0,0,1,3-2.94,10,10,0,0,1,7-.78A7.8,7.8,0,0,1,19,10.12Z"/><path class="cls-7" d="M6.1,8.67a9.42,9.42,0,0,1,4.45.62A2.19,2.19,0,0,0,10,11a2.34,2.34,0,0,0,.86,1.43A9,9,0,0,1,6.78,14,9.83,9.83,0,0,1,0,12.08,9.14,9.14,0,0,1,6.1,8.67Z"/><path class="cls-8" d="M8.82,5.59a8.05,8.05,0,0,1,3.11,2.89,2.63,2.63,0,0,0-1.55,1.06,2.09,2.09,0,0,0-.3,1.59,9.31,9.31,0,0,1-4.34-1A8.07,8.07,0,0,1,1.63,5,10.16,10.16,0,0,1,8.82,5.59Z"/><path class="cls-9" d="M17,6.35A7.34,7.34,0,0,1,14.6,9.68a2.59,2.59,0,0,0-1.53-1.1,2.9,2.9,0,0,0-1.82.1,6.72,6.72,0,0,1,.05-4A8.39,8.39,0,0,1,16,0,7.34,7.34,0,0,1,17,6.35Z"/><ellipse class="cls-10" cx="12.39" cy="10.67" rx="2.23" ry="2.09" transform="translate(-0.42 0.51) rotate(-2.34)"/></g></g></svg>